<svg width="250" height="380" viewBox="0 0 250 380" fill="none" xmlns="http://www.w3.org/2000/svg">
<path fill-rule="evenodd" clip-rule="evenodd" d="M99.3421 222.859C99.3421 208.882 112.727 197.189 117.862 197.189C121.841 197.189 136.09 208.882 136.09 222.859C136.09 237.118 128.111 248.53 117.862 248.53C107.602 248.53 99.3421 237.118 99.3421 222.859ZM124.976 171.518L82.2497 138.995L72 159.533C76.552 161.245 82.5411 176.65 96.4983 186.059C87.3842 197.189 82.2497 207.453 83.1036 227.136C84.8127 256.801 103.904 265.073 122.986 265.073C141.787 265.073 155.453 257.657 159.734 227.136C162.297 208.308 152.037 190.91 141.215 184.922C157.161 174.366 172.264 158.396 173.118 159.533C175.109 154.401 182.514 154.401 176.254 135C169.983 146.13 124.976 171.518 124.976 171.518Z" fill="black"/>
</svg>
