<svg width="250" height="380" viewBox="0 0 250 380" fill="none" xmlns="http://www.w3.org/2000/svg">
<path d="M30.1489 147.321C50.6873 156.448 105.731 363.542 114.013 369.811H129.409C129.409 369.811 198.159 196.387 213.273 182.974C199.014 184.12 195.875 184.12 186.466 192.101C183.326 199.235 123.14 341.293 123.14 341.293L64.9465 172.136C110.582 148.75 220.408 129.64 220.408 129.64V103.96C220.408 103.96 56.3928 57.1876 45.5452 36.6492C45.5452 46.6314 45.5452 63.1749 54.1086 72.302C68.086 77.7259 177.902 115.371 177.902 115.371C177.902 115.371 47.5476 152.453 30.1489 147.321Z" fill="black"/>
</svg>
