<svg width="250" height="380" viewBox="0 0 250 380" fill="none" xmlns="http://www.w3.org/2000/svg">
<path d="M30.1885 136.765C46.4501 154.455 74.1231 363.542 82.3947 369.811H94.6615L149.716 224.906C149.716 224.906 177.67 353.268 183.658 362.687C192.785 365.534 210.184 369.811 210.184 369.811C187.935 350.42 162.264 186.113 162.264 186.113L141.444 186.969L94.6615 333.022L61.2827 167.004C108.065 143.9 214.46 125.072 214.46 125.072V99.6836C214.46 99.6836 50.1632 53.1932 39.3255 32.6548C39.3255 42.637 39.3255 58.8987 47.879 68.3076C61.8564 73.7313 172.246 110.813 172.246 110.813C172.246 110.813 54.7218 144.182 30.1885 136.765V136.765Z" fill="black"/>
</svg>
