<svg width="250" height="380" viewBox="0 0 250 380" fill="none" xmlns="http://www.w3.org/2000/svg">
<path d="M30.1836 141.042C45.8716 157.303 69.5494 364.106 77.5395 369.811H89.2326L118.898 235.18C118.898 235.18 140.573 361.258 146.561 369.811H160.256C182.787 259.995 187.929 209.218 209.887 194.103C204.473 192.101 191.924 194.959 184.79 202.657C173.952 214.068 155.406 323.029 155.406 323.029L128.598 189.253H110.908L82.3899 324.75L57.8566 166.722C102.636 149.313 213.882 130.204 213.882 130.204V104.815C213.882 104.815 49.5847 58.0428 38.747 37.5044C38.747 47.4869 38.747 63.7486 47.3004 73.1575C61.2778 78.5812 171.386 115.945 171.386 115.945C171.386 115.945 56.7093 144.181 30.1836 141.042Z" fill="black"/>
</svg>
