<svg width="230" height="380" viewBox="0 0 230 380" fill="none" xmlns="http://www.w3.org/2000/svg">
<path d="M62.1337 175.266C105.776 156.156 199.049 141.042 199.049 141.042V119.93L86.667 86.2694L203.044 62.6015C219.306 53.1826 219.306 31.7891 219.306 31.7891C205.61 50.6165 53.2885 70.8731 48.1564 80.282V94.5412L153.122 128.775C153.122 128.775 60.7047 152.161 30.1841 149.314C45.8721 165.575 70.6872 364.106 78.3955 369.811H90.3701L119.754 235.17C119.754 235.17 141.429 361.248 147.709 369.811H161.394C184.217 259.985 189.067 209.218 210.743 194.093C205.892 192.102 193.062 194.949 186.219 202.657C175.372 214.068 156.554 323.311 156.554 323.311L129.736 189.243H112.046L83.5273 325.022C83.5273 325.022 62.4153 172.991 60.7047 170.707L62.1337 175.266Z" fill="black"/>
</svg>
