<svg width="250" height="380" viewBox="0 0 250 380" fill="none" xmlns="http://www.w3.org/2000/svg">
<path d="M31.3243 155.019C47.3041 171.28 62.9922 360.111 70.972 365.816C77.8247 365.816 90.3733 369.811 90.3733 369.811L119.757 235.461C119.757 235.461 141.432 361.258 147.42 369.811H161.397C184.22 260.277 189.07 209.499 210.746 194.385C205.895 192.391 193.065 195.241 186.212 202.938C175.375 214.35 156.547 323.029 156.547 323.029L129.739 189.535H112.049L83.5305 325.031C83.5305 325.031 60.7079 175.849 58.9973 173.565C82.3833 159.014 112.049 163.29 193.92 127.064C209.327 113.087 209.327 81.7104 209.327 81.7104C192.773 119.94 45.3017 154.737 30.187 151.597L31.3243 155.019Z" fill="black"/>
</svg>
