<svg width="250" height="380" viewBox="0 0 250 380" fill="none" xmlns="http://www.w3.org/2000/svg">
<path d="M30.1885 148.176C46.732 165.575 70.1282 363.814 78.3998 369.811H90.6666L145.721 224.614C145.721 224.614 173.675 353.55 179.663 362.677C188.79 365.816 206.189 369.811 206.189 369.811C183.94 350.41 158.269 186.114 158.269 186.114L137.449 186.969L90.6666 333.294L58.4351 174.703C102.641 155.875 194.214 141.042 194.214 141.042V119.93L81.5396 86.2698L198.199 62.602C214.46 53.1831 214.46 31.7896 214.46 31.7896C200.483 50.617 48.1608 70.8736 43.3107 80.2825V94.5417L147.713 128.776C147.713 128.776 58.9988 151.306 30.1885 148.177V148.176Z" fill="black"/>
</svg>
