<svg width="250" height="380" viewBox="0 0 250 380" fill="none" xmlns="http://www.w3.org/2000/svg">
<path d="M68.1167 175.839C112.041 157.022 204.751 141.897 204.751 141.897V120.795L92.64 87.1346L209.027 63.4567C225.289 53.7561 225.289 32.644 225.289 32.644C211.312 51.4718 58.9897 71.7283 54.1393 81.1372V95.4064L158.824 129.63C158.824 129.63 63.5482 153.026 30.1797 155.301C50.4263 164.438 105.762 363.532 114.034 369.811H129.158C129.158 369.811 197.616 196.096 213.022 182.692C198.753 183.83 195.624 183.83 186.486 191.819C183.357 198.944 123.171 341.283 123.171 341.283L66.6879 172.418L68.1167 175.839Z" fill="black"/>
</svg>
