<svg width="107" height="107" viewBox="0 0 107 107" fill="none" xmlns="http://www.w3.org/2000/svg">
<path d="M58.9126 53.5L86.3418 20.8044C86.8015 20.261 86.4149 19.4355 85.7043 19.4355H77.3659C76.8748 19.4355 76.4045 19.655 76.0806 20.0312L53.4581 47.0006L30.8355 20.0312C30.522 19.655 30.0518 19.4355 29.5503 19.4355H21.2118C20.5012 19.4355 20.1146 20.261 20.5744 20.8044L48.0036 53.5L20.5744 86.1956C20.4714 86.3167 20.4053 86.4648 20.384 86.6224C20.3627 86.7799 20.387 86.9403 20.4541 87.0844C20.5212 87.2285 20.6283 87.3504 20.7626 87.4355C20.8969 87.5206 21.0528 87.5653 21.2118 87.5644H29.5503C30.0414 87.5644 30.5116 87.345 30.8355 86.9688L53.4581 59.9994L76.0806 86.9688C76.3941 87.345 76.8643 87.5644 77.3659 87.5644H85.7043C86.4149 87.5644 86.8015 86.739 86.3418 86.1956L58.9126 53.5Z" fill="white"/>
</svg>
